<svg xmlns="http://www.w3.org/2000/svg" viewBox="0 0 188.83 371"><defs><style>.cls-1{fill:#f7b801;}.cls-2{fill:#fff;}</style></defs><g id="Capa_2" data-name="Capa 2"><g id="Capa_1-2" data-name="Capa 1"><path class="cls-1" d="M35.1,280.39C38.2,264.41,46.86,180,50,171.3c.07-.19.21-.78.46-1.72a85.5,85.5,0,0,1,12.91-27.71L78,121.3c3.56-3.3,2.61-2.1,4.5-3.33a36.57,36.57,0,0,1,4.44-2.5l.18-.08a5.27,5.27,0,0,1,4.8,0,5.17,5.17,0,0,1,2.59,3.66l6.88,37.34c.07.77.1,1.7.09,2.71a46.18,46.18,0,0,1-1.69,11.92L85.63,222.84a4.68,4.68,0,0,1-.59,1.4L52.4,277.06a4.8,4.8,0,0,1-1.07,1.22l-8.42,6.8a4.85,4.85,0,0,1-6.79-.69h0A4.86,4.86,0,0,1,35.1,280.39Z"/><ellipse class="cls-1" cx="42.78" cy="89.55" rx="39.81" ry="18.22" transform="translate(-47.78 130.14) rotate(-88.61)"/><ellipse class="cls-1" cx="92.51" cy="39.92" rx="40.15" ry="18.06" transform="translate(41.66 126.9) rotate(-83.03)"/><ellipse class="cls-1" cx="141.94" cy="54.02" rx="40.15" ry="18.07" transform="translate(57.39 180.19) rotate(-77.01)"/><ellipse class="cls-1" cx="166.39" cy="115.73" rx="39.47" ry="18.38" transform="translate(-2.49 227.8) rotate(-68.39)"/><path class="cls-2" d="M21.88,369.72q-6.28-4-10.22-21Q8.53,335,5.57,310.53t-4.78-52q-.52-6.77-.66-15.37T0,216.77q0-15.2.13-24.06t.59-18.3q.47-9.42,1.51-25.34Q2.76,141,3,137c.18-2.68.37-4.64.59-5.86A15,15,0,0,1,4.46,128q3.14-7.68,8.64-7.68t8.65,7.5a14.91,14.91,0,0,1,1,4.12c.13,1.4.2,3,.2,4.84v3.11q-.13,5-.79,13.73-1.3,18.48-1.63,29.54t-.33,33.58q0,17,.13,25.79T21,257.2q1.58,23.06,2.1,23.05v-.18a17.33,17.33,0,0,0,.39-2.38l.66-4.94a542.53,542.53,0,0,1,13.17-72.18q9-35.4,20.31-62.11t22.6-37.32A21.55,21.55,0,0,1,86,96.93a14.5,14.5,0,0,1,5.89-1.1,13.17,13.17,0,0,1,3.67.37,11.68,11.68,0,0,1,3,1.64q5.25,3.12,8.39,10.8a72.66,72.66,0,0,1,5,18.11,128.5,128.5,0,0,1,.79,16.1V146a191.51,191.51,0,0,1-1,21.59A246.49,246.49,0,0,1,88.71,246.4q-11.53,23.79-23.06,35.86a111.14,111.14,0,0,1-28.31,21,1.1,1.1,0,0,0-.65-.36c-.18,0-.35.18-.53.55a12.23,12.23,0,0,0-.72,3.47c-.13,1.47-.22,3-.26,4.67s-.06,3-.06,4.11v1.47q-.4,5.85-.66,11.8t-.52,9.24l-.4,7.32,1.71,2.56a16.16,16.16,0,0,1,2.62,8.6,18.6,18.6,0,0,1-2.75,9.33A8.81,8.81,0,0,1,27,371h-.65A8,8,0,0,1,21.88,369.72ZM50.05,267.81q25.82-36,35.12-67.51a218.87,218.87,0,0,0,9.3-50.86c.26-3.54.4-6.89.4-10.06A89.36,89.36,0,0,0,94.21,128c-.79-6-2-9.21-3.67-9.69h-.26c-.61,0-1.53.54-2.75,1.64a23.47,23.47,0,0,0-4.33,4.76q-11.26,16.47-22.86,52.6a565,565,0,0,0-18.54,76.2q-1.44,8.79-2.69,17.84c-.83,6-1.24,9.6-1.24,10.7a2.7,2.7,0,0,0,.06.82.22.22,0,0,0,.2.1,1.49,1.49,0,0,0,.52-.19c.35-.36.88-1,1.58-1.83s2-2.34,3.86-4.84S48,270.86,50.05,267.81Z"/></g></g></svg>