<svg xmlns="http://www.w3.org/2000/svg" viewBox="0 0 641.04 371"><defs><style>.cls-1{fill:#f7b801;}.cls-2{fill:#7678ed;}</style></defs><g id="Capa_2" data-name="Capa 2"><g id="Capa_1-2" data-name="Capa 1"><g id="Mesa_2" data-name="Mesa 2"><path class="cls-1" d="M34.54,282.47c.79,1.84,20.78-129.23,20.78-129.23L80.23,118l13.29-4.4,8.07,43.83L85.45,223.59,52,277.76,39.17,288.1Z"/><ellipse class="cls-1" cx="42.78" cy="89.55" rx="39.81" ry="18.22" transform="translate(-47.78 130.14) rotate(-88.61)"/><ellipse class="cls-1" cx="92.51" cy="39.92" rx="40.15" ry="18.06" transform="translate(41.66 126.9) rotate(-83.03)"/><ellipse class="cls-1" cx="141.95" cy="54.02" rx="40.15" ry="18.07" transform="translate(57.39 180.19) rotate(-77.01)"/><ellipse class="cls-1" cx="166.39" cy="115.73" rx="39.47" ry="18.38" transform="translate(-2.49 227.8) rotate(-68.39)"/><path class="cls-2" d="M21.88,369.72q-6.28-4-10.22-21Q8.53,335,5.57,310.53t-4.78-52q-.52-6.77-.66-15.37T0,216.77q0-15.2.13-24.06t.59-18.3q.47-9.42,1.51-25.34Q2.76,141,3,137c.18-2.68.37-4.64.59-5.86A15.65,15.65,0,0,1,4.46,128q3.14-7.68,8.64-7.68t8.65,7.5a14.91,14.91,0,0,1,1,4.12c.14,1.4.2,3,.2,4.84v3.11q-.13,5-.79,13.73-1.3,18.48-1.63,29.54t-.33,33.58q0,17,.13,25.79T21,257.2q1.58,23.06,2.1,23.05v-.18a18.35,18.35,0,0,0,.4-2.38c.17-1.34.39-3,.65-4.94a542.53,542.53,0,0,1,13.17-72.18q9-35.4,20.31-62.11t22.6-37.32A21.55,21.55,0,0,1,86,96.93a14.5,14.5,0,0,1,5.89-1.1,13.57,13.57,0,0,1,3.67.37,11.68,11.68,0,0,1,3,1.64q5.25,3.12,8.39,10.8a72.66,72.66,0,0,1,5,18.11,128.5,128.5,0,0,1,.79,16.1V146a189.17,189.17,0,0,1-1,21.59A246.24,246.24,0,0,1,88.71,246.4q-11.53,23.79-23.06,35.86a111.14,111.14,0,0,1-28.31,21,1.1,1.1,0,0,0-.65-.36c-.18,0-.35.18-.53.55a12.59,12.59,0,0,0-.72,3.47c-.13,1.47-.22,3-.26,4.67s-.06,3-.06,4.11v1.47q-.4,5.85-.66,11.8c-.17,4-.35,7-.52,9.24l-.4,7.32,1.71,2.56a16.16,16.16,0,0,1,2.62,8.6,18.6,18.6,0,0,1-2.75,9.33A8.81,8.81,0,0,1,27,371h-.65A8,8,0,0,1,21.88,369.72ZM50.05,267.81q25.82-36,35.12-67.51a218.87,218.87,0,0,0,9.3-50.86c.26-3.54.4-6.89.4-10.06A89.36,89.36,0,0,0,94.21,128c-.79-6-2-9.21-3.67-9.69h-.26c-.61,0-1.53.54-2.75,1.64a23.47,23.47,0,0,0-4.33,4.76q-11.26,16.47-22.86,52.6a565,565,0,0,0-18.54,76.2q-1.44,8.79-2.69,17.84c-.83,6-1.24,9.6-1.24,10.7a2.7,2.7,0,0,0,.06.82.22.22,0,0,0,.2.1,1.49,1.49,0,0,0,.52-.19c.35-.36.88-1,1.58-1.83s2-2.34,3.86-4.84S48,270.86,50.05,267.81Z"/><path class="cls-2" d="M167.33,340.26Q153.19,335,151,282.63q-.12-4.39-.32-7.59c-.13-2.14-.2-3.39-.2-3.75a5.81,5.81,0,0,0-.66,1.83c-.35,1.34-.78,3.11-1.31,5.3q-2.22,8.79-5,18.57T138.9,311.9q-6.17,15.92-11.53,19.21t-8.52,3.3a11.2,11.2,0,0,1-7.47-3.11q-6.28-5.67-8.45-16.29a96.33,96.33,0,0,1-2.16-19,141.12,141.12,0,0,1,1.7-20.68,183.69,183.69,0,0,1,7.34-30.73q7.72-21.22,16.84-29.92t16.7-8.69a17.82,17.82,0,0,1,5.64.92q5.5,1.83,9.43,7.86a16,16,0,0,0,2.43,3.3,5.46,5.46,0,0,0,2.29,1.28q4.32,1.65,6.81,7.5a13.41,13.41,0,0,1,.46,1.55,17.86,17.86,0,0,1,.33,2.38c.09,1,.13,2.59.13,4.67s0,4.85.07,8.32.06,8,.06,13.63q0,14.28.13,22.32t.66,13.54q.51,5.49,1.57,12.08a37.31,37.31,0,0,0,1.7,7.77,7.7,7.7,0,0,0,2.75,3.57,8.5,8.5,0,0,1,3.28,4.21,17.35,17.35,0,0,1,1.18,6.22,15.18,15.18,0,0,1-.66,4.39c-1.13,3.42-2.75,5.85-4.84,7.32A10.36,10.36,0,0,1,171,341,9.8,9.8,0,0,1,167.33,340.26ZM127,290.13q2.49-4.58,6.95-13.9t8.71-18.94q4.26-9.6,6.23-14.91l.91-2.38-1.18-1.65a16.23,16.23,0,0,0-1.37-1.64,8.42,8.42,0,0,0-1.77-1.47,4.78,4.78,0,0,0-1.24-.91,2.17,2.17,0,0,0-.73-.18h-.39a5.65,5.65,0,0,0-1.31.73q-6.28,3.66-12,17.56a123.47,123.47,0,0,0-7.92,31.1q-.27,2.38-.53,5.86t-.33,6.31q-.06,2.84-.06,3.39c0,.12,0,.18.13.18q.39,0,1.44-1.65C123.39,296.29,124.88,293.79,127,290.13Z"/><path class="cls-2" d="M209.92,341.18q-7.06-4-10.35-17.38-2.88-14.28-2.88-36.23,0-4.76.13-10.06a379.36,379.36,0,0,1,5.24-55.62q2.1-11.89,5.64-16.1,3.27-3.66,6.81-3.66a10.31,10.31,0,0,1,2,.18q4.71,1.29,7.07,7.87a17.22,17.22,0,0,1,1,5.85v.55a29.52,29.52,0,0,1-1.44,7.32q-3.15,8.79-5.37,36.23c-.27,2.8-.46,6.52-.59,11.16s-.2,8.81-.2,12.53v14.54a34.89,34.89,0,0,0,.39,5.86c0,.12.05.18.13.18q1.18,0,6.56-13.35a181.54,181.54,0,0,0,13.49-46.84q2.1-13,10.48-13.17,4.59,0,7.73,5.12a17,17,0,0,1,2.36,5.12,55.86,55.86,0,0,1,1.57,9.24q.66,6.14,1.58,17.29c.17,2.56.39,5.31.65,8.23s.48,5.31.66,7.14q.64,5.85,1.64,11.71c.65,3.9,1.31,7.1,2,9.6s1.16,3.75,1.51,3.75.87-1.09,1.57-2.92,1.4-3.94,2.1-6.32,1.26-4.54,1.7-6.49a157.55,157.55,0,0,0,2.49-22.78q.78-14.73,1.05-43.45,0-9.51.19-16.1T277,203a2.59,2.59,0,0,1,1.38-1.55A4.15,4.15,0,0,1,280,201h.4q2.49.74,3.6,5.95t2,19.67q1.71,29.45,1.7,54.33,0,24.7-1.7,36.41a41.74,41.74,0,0,1-5.17,13.91q-3.74,6.21-7.41,8.05a14.32,14.32,0,0,1-6,1.83,12.22,12.22,0,0,1-6.56-2.2q-13.23-9.15-17.82-48.48-.39-3.48-.72-5.77c-.22-1.52-.32-2.34-.32-2.47s-.18.19-.27.55-.28,1.1-.59,2.2-.7,2.59-1.17,4.48-1.1,4.36-1.84,7.41-1.68,6.77-2.82,11.16q-2.75,11.16-4.39,16.19a36.53,36.53,0,0,1-3.47,8q-6.15,9.89-13.1,9.88A11.66,11.66,0,0,1,209.92,341.18Z"/><path class="cls-2" d="M326.94,342.27q-5.37-1.81-7.47-10.61-2-9.15-4.52-36t-3.73-51q-.27-4.58-.46-8.69c-.13-2.75-.29-4.67-.46-5.77a55,55,0,0,1-.39-6,24.14,24.14,0,0,1,.26-3.84,17.17,17.17,0,0,1,3-6.77,31.8,31.8,0,0,1,2.23-2.56,5,5,0,0,1,2.23-1.28,9.36,9.36,0,0,1,2.49-.36,7.73,7.73,0,0,1,5.11,2q3.4,2.75,4.58,8.41c.18,1,.37,3,.59,5.95s.42,6.31.59,10,.2,6.74.33,9.24a34,34,0,0,0,.33,4.12,7.58,7.58,0,0,0,.78-2c.44-1.46,1-3.41,1.58-5.85q5.1-20.49,10.74-28,6.69-9,15.2-9,11.79,0,18.34,19.21a67.18,67.18,0,0,1,2,7q.78,3.47,1.7,9.51a36.59,36.59,0,0,1,.46,4.12,14.25,14.25,0,0,1-.19,3,11.36,11.36,0,0,1-5.12,7.69,5.53,5.53,0,0,1-2.75.73q-4.71,0-9.43-8.6c-.61-1.1-1.27-2.44-2-4s-1.31-3.11-1.83-4.58-1-2.47-1.44-3.38-.74-1.38-.92-1.38c-.61,0-1.57,1-2.88,3a62.86,62.86,0,0,0-4,7.32q-2,4.31-3.47,8.33a152.7,152.7,0,0,0-5,23.51,177.74,177.74,0,0,0-2,24.79c0,2.56-.14,6-.4,10.33s-.55,8.45-.85,12.35-.59,6.65-.85,8.24q-1.18,6.21-4.13,8.87t-5.7,2.65A7.37,7.37,0,0,1,326.94,342.27Z"/><path class="cls-2" d="M394.43,302.21a104.24,104.24,0,0,1-1.05-14.82A121.89,121.89,0,0,1,395,268.18a126.26,126.26,0,0,1,9-31.66q10.88-23.22,25.29-30.37a23.46,23.46,0,0,1,9.57-2.37,14.59,14.59,0,0,1,6.42,1.46,16.21,16.21,0,0,1,8.58,10.43,47.09,47.09,0,0,1,1.9,12.07,62.75,62.75,0,0,1-1.7,13.73,73.47,73.47,0,0,1-8.39,20.39,61.25,61.25,0,0,1-13.1,16,26.61,26.61,0,0,1-16.51,6c-.09,0-.13.61-.13,1.83v2.56a61.5,61.5,0,0,0,.39,6.41,43.12,43.12,0,0,0,1.77,9.05,21.28,21.28,0,0,0,4,7.59,8.73,8.73,0,0,0,7.07,3.11h.52q7.6,0,17.43-13.53c1.4-1.83,2.66-3.45,3.8-4.85s1.92-2.17,2.36-2.29a1.86,1.86,0,0,1,1.05-.37,2.77,2.77,0,0,1,1.57.55,5.57,5.57,0,0,1,2,2.75,15,15,0,0,1,.26,2.93q0,6.21-4.72,15.73a78.33,78.33,0,0,1-15.59,20.86q-8,7.13-15.2,7.13a14.84,14.84,0,0,1-4.06-.55q-8.91-2.93-15.27-14T394.43,302.21ZM423.91,266q10.6-6.59,17.3-19.94,3.27-7.68,3.27-11a3.82,3.82,0,0,0-.52-2.19,2.2,2.2,0,0,0-1.71-.74c-1.75,0-4.32,1.22-7.73,3.66a37.77,37.77,0,0,0-6,7.05,49.51,49.51,0,0,0-5.38,9.6q-1.44,3.3-2.29,5.67t-2,6.77L418,268h1.18a5.76,5.76,0,0,0,1.84-.55A24.47,24.47,0,0,0,423.91,266Z"/><path class="cls-2" d="M485.76,342.27a13.9,13.9,0,0,1-3.6-4.11,19,19,0,0,1-2.43-5.58,102.66,102.66,0,0,1-2-16.19q-.66-10.71-.79-31.38-.12-9-.13-17.2,0-12.26.26-22.69.4-17.37,1.18-21a15.18,15.18,0,0,1,3.74-6.77,8.63,8.63,0,0,1,5.7-2.74q4,0,7.07,4a14.26,14.26,0,0,1,2.1,4.2,31.7,31.7,0,0,1,.72,7.69q.06,5.49-.33,17c-.08,4.15-.13,7.26-.13,9.33a14.58,14.58,0,0,0,.13,3.11,15.21,15.21,0,0,0,1-2.74c.53-1.58,1.09-3.48,1.7-5.67q12.06-40.44,23.72-51.23,4.32-4.2,9.17-4.21h1.18q5.5.74,9.44,6.41,3.93,5.3,6,16.1t4,35.67q.66,7,1.25,13.54c.39,4.39.72,7.63,1,9.7q2.1,15.18,5,27.81t4.78,13.9a9,9,0,0,1,3.6,3.93,12.85,12.85,0,0,1,1.51,6.13,15.54,15.54,0,0,1-1.31,5.77,19.49,19.49,0,0,1-3,5.21,8.58,8.58,0,0,1-6.42,3.11,6.58,6.58,0,0,1-1.44-.18q-11.52-.74-18.6-36.59-2.24-11.16-3.61-21.87t-2.68-26.43q-2.1-27.27-3-27.26c-.26.12-.89,1.25-1.9,3.38s-2.11,4.67-3.34,7.59-2.31,5.74-3.27,8.42q-6.69,17.38-16.77,63.85-1.32,6-2.56,11.07c-.83,3.36-1.42,5.58-1.77,6.68q-2.49,7.32-6.29,10.06a7.91,7.91,0,0,1-4.45,1.28A8.91,8.91,0,0,1,485.76,342.27Z"/><path class="cls-2" d="M601.08,344.47q-5.51-2.57-9-12.44-3.67-11.89-6.56-40.43t-3.53-62l-.4-14.63-1,.18c-.35,0-1,0-2.09.09s-2.19.09-3.41.09h-3.93a7.85,7.85,0,0,1-2.23-1.1,11.82,11.82,0,0,1-4.72-9.51,12.37,12.37,0,0,1,.27-2.56,13.63,13.63,0,0,1,1.57-4.48,9.42,9.42,0,0,1,3-3,15.18,15.18,0,0,1,2-1.19,5.94,5.94,0,0,1,2.23-.55l3.66-.27,5.38-.19.26-2.56c.09-.73.22-2.5.39-5.3s.35-6,.53-9.52q.51-8.78.85-13.26t.72-6.59a15.83,15.83,0,0,1,1-3.57q2.22-4.75,4.85-5.76a12.48,12.48,0,0,1,4.19-1,8.81,8.81,0,0,1,4.45,1.29q6,4,6,14.45,0,1.65-.26,6.22c-.18,3.05-.39,6.22-.66,9.51s-.45,6.25-.59,8.88-.19,4.24-.19,4.84l-.13,1.83h16.77c4.45,0,7.93,0,10.41.1s4.31.15,5.44.27a5.48,5.48,0,0,1,2.23.55,5,5,0,0,1,2.49,4.39,8.15,8.15,0,0,1-.13,1.28,6.88,6.88,0,0,1-4.19,5.12l-5.84,1.19q-4.9,1-11.59,2.11-6.56,1.28-11.14,2.1t-5,1.19c-.17.12-.26,2.08-.26,5.85,0,2.57,0,6,.13,10.25q.39,22.5,2,44.73t4,37.78c.61,3.91,1.16,6.77,1.64,8.6a11.63,11.63,0,0,0,2,4.39,16.16,16.16,0,0,1,2.75,9,21.3,21.3,0,0,1-.92,6,16.8,16.8,0,0,1-2,4.12,11.19,11.19,0,0,1-3.08,2.84,9.17,9.17,0,0,1-3.34,1.1c-1.09.12-1.9.18-2.42.18A6,6,0,0,1,601.08,344.47Z"/></g></g></g></svg>